<?xml version="1.0" encoding="UTF-8"?><svg id="Layer_1" xmlns="http://www.w3.org/2000/svg" viewBox="0 0 320 320"><defs><style>.cls-1{fill:none;}.cls-2{fill:#52668c;}</style></defs><path class="cls-2" d="M281.26,120.6c-3.77-11.6-15.21-18.55-26.88-17.07-15.19-25.29-40.25-44-69.82-50.76-2.21-11.55-12.36-20.26-24.55-20.26s-22.33,8.72-24.55,20.26c-29.57,6.76-54.63,25.48-69.82,50.76-11.68-1.48-23.14,5.47-26.91,17.07-3.77,11.6,1.4,23.95,11.71,29.61-.29,3.22-.44,6.49-.44,9.78,0,27.64,10.25,52.92,27.14,72.27-5.04,10.65-1.96,23.7,7.92,30.87,9.86,7.16,23.19,6.07,31.77-1.97,13.26,5.68,27.85,8.83,43.17,8.83s29.91-3.15,43.17-8.83c8.57,8.05,21.91,9.15,31.78,1.98,9.88-7.18,12.96-20.24,7.91-30.89,16.89-19.34,27.14-44.63,27.14-72.26,0-3.3-.15-6.56-.44-9.79,10.3-5.67,15.45-18.01,11.69-29.61ZM244.68,106.86c-8.41,5-13.17,14.54-12.06,24.29l-50.87,16.53c-3.51-6.18-9.57-10.72-16.75-12.17v-53.5c9.62-1.95,17.23-9.43,19.38-18.99,25.27,6.36,46.75,22.36,60.29,43.84ZM135.63,63.01c2.15,9.55,9.76,17.03,19.38,18.99v53.5c-7.18,1.46-13.24,6-16.75,12.18l-50.89-16.54c1.12-9.74-3.63-19.28-12.04-24.28,13.54-21.49,35.02-37.49,60.29-43.85ZM60.25,153.22c9.75.9,19.21-4.02,24.04-12.57l50.89,16.54c-.1.92-.16,1.86-.16,2.81,0,6.51,2.49,12.43,6.56,16.88l-31.45,43.28c-8.92-4.07-19.45-2.5-26.8,3.94-14.54-17.37-23.31-39.73-23.31-64.1,0-2.28.08-4.54.23-6.78ZM122.73,252.79c3.88-9,2.12-19.52-4.52-26.75l31.45-43.28c3.16,1.44,6.66,2.24,10.35,2.24s7.2-.81,10.35-2.24l31.46,43.29c-6.63,7.23-8.39,17.74-4.52,26.73-11.53,4.65-24.11,7.22-37.29,7.22s-25.75-2.57-37.28-7.21ZM236.7,224.1c-7.36-6.43-17.88-7.99-26.79-3.93l-31.46-43.29c4.07-4.45,6.56-10.37,6.56-16.88,0-.95-.06-1.89-.16-2.81l50.87-16.53c4.83,8.55,14.31,13.47,24.06,12.56.15,2.24.23,4.5.23,6.78,0,24.37-8.77,46.73-23.31,64.1Z"/><rect class="cls-1" width="320" height="320"/></svg>