<svg viewBox="0 0 170.995 170.995" width="45" height="45" xmlns="http://www.w3.org/2000/svg"><defs><linearGradient id="a" x1="478.96" x2="478.96" y1="376.65" y2="244.42" gradientUnits="userSpaceOnUse"><stop stop-color="#fcaf3e" offset="0" style="stop-color:#4c6586;stop-opacity:1"/><stop stop-color="#f57c03" offset=".09" style="stop-color:#4c6586;stop-opacity:1"/><stop stop-color="#fcaf3e" offset="1" style="stop-color:#4c6586;stop-opacity:1"/></linearGradient><linearGradient id="b" x1="475.26" x2="480.09" y1="216.51" y2="285.67" gradientUnits="userSpaceOnUse"><stop stop-color="#fff" offset="0"/><stop stop-color="#fff" stop-opacity=".053" offset="1"/></linearGradient></defs><path d="M392.72 209.72h157.42a6.788 6.788 0 0 1 6.788 6.788v157.42a6.788 6.788 0 0 1-6.788 6.787H392.72a6.788 6.788 0 0 1-6.788-6.787v-157.42a6.788 6.788 0 0 1 6.788-6.788" fill="url(#a)" transform="translate(-385.93 -209.72)"/><path d="M396.05 213.51c-3.466 1.168-4.457 2.159-5.625 5.625v77.375s119.15-85 163 0v-76.594c-1.252-3.903-2.68-4.978-6.406-6.406h-150.97z" fill="url(#b)" opacity=".868" transform="translate(-385.93 -209.72)"/><g fill="#8b3e00"><path d="M174 197.38v15h-30v30h30v15l30-30-30-30zM276 257.36v-15h30v-30h-30v-15l-30 30 30 30zM195 278.36h15v30h30v-30h15l-30-30-30 30zM255 176.36h-15v-30h-30v30h-15l30 30 30-30z" opacity=".986" style="fill:#fff;fill-opacity:1" transform="rotate(-45 -16.005 324.818)"/><path transform="rotate(-45 -5.828 298.69)" d="M224.51 212.36a14.506 14.506 0 1 1-29.013 0 14.506 14.506 0 1 1 29.013 0z" opacity=".986" style="fill:#fff;fill-opacity:1"/></g></svg>