<?xml version="1.0" encoding="UTF-8"?>
<svg viewBox="0 0 170.99547 170.99547" xmlns="http://www.w3.org/2000/svg">
 <defs>
  <linearGradient id="b" x1="478.96" x2="478.96" y1="376.65" y2="244.42" gradientUnits="userSpaceOnUse">
   <stop stop-color="#fcaf3e" offset="0"/>
   <stop stop-color="#f57c03" offset=".08958"/>
   <stop stop-color="#fcaf3e" offset="1"/>
  </linearGradient>
  <linearGradient id="a" x1="475.26" x2="480.09" y1="216.51" y2="285.67" gradientUnits="userSpaceOnUse">
   <stop stop-color="#fff" offset="0"/>
   <stop stop-color="#fff" stop-opacity=".05343" offset="1"/>
  </linearGradient>
 </defs>
 <g transform="translate(-385.93 -209.72)">
  <path d="m392.72 209.72h157.42a6.7877 6.7877 0 0 1 6.7877 6.7877v157.42a6.7877 6.7877 0 0 1 -6.7877 6.7877h-157.42a6.7877 6.7877 0 0 1 -6.7877 -6.7877v-157.42a6.7877 6.7877 0 0 1 6.7877 -6.7877" fill="url(#b)"/>
  <path d="m396.05 213.51c-3.466 1.1679-4.4571 2.159-5.625 5.625v77.375s119.15-85 163 0v-76.594c-1.2515-3.9032-2.6798-4.9779-6.4062-6.4062h-150.97z" fill="url(#a)" opacity=".86821"/>
  <g transform="matrix(.70711 -.70711 .70711 .70711 151.56 293.54)" fill="#8b3e00">
   <path d="m174 197.38v15h-30v30h30v15l30-30-30-30z" opacity=".9864"/>
   <path d="m276 257.36v-15h30v-30h-30v-15l-30 30 30 30z" opacity=".9864"/>
   <path d="m195 278.36h15v30h30v-30h15l-30-30-30 30z" opacity=".9864"/>
   <path d="m255 176.36h-15v-30h-30v30h-15l30 30 30-30z" opacity=".9864"/>
   <path transform="translate(15.494 14.849)" d="m224.51 212.36a14.506 14.506 0 1 1 -29.013 0 14.506 14.506 0 1 1 29.013 0z" opacity=".9864"/>
  </g>
 </g>
</svg>
